<?xml version="1.0" encoding="UTF-8"?>
<svg width="111" height="111" viewBox="0 0 111 111" xmlns="http://www.w3.org/2000/svg">
    <rect fill="#058FFB" x="0" y="0" width="111" height="111" rx="20"/>
    <path fill="#010D26" fill-rule="nonzero" d="M70.43 71.93c.27-.39.3-.8.12-1.22L57 39.77c-.22-.52-.61-.77-1.17-.77-.56 0-.96.26-1.2.77L41.11 70.71c-.14.33-.14.66-.02.98.13.33.35.56.68.7.17.08.34.12.51.12.57 0 .95-.26 1.19-.77L55.83 43.5 67.39 69.94H52.6c-.36 0-.66.13-.91.37-.25.25-.38.55-.38.91 0 .36.13.66.38.91.25.25.55.38.91.38h16.76c.47 0 .83-.2 1.08-.58z"/>
</svg>
